<svg width="32" height="32" viewBox="0 0 32 32" fill="none" xmlns="http://www.w3.org/2000/svg">
<g clip-path="url(#clip0_10373_622)">
<path fill-rule="evenodd" clip-rule="evenodd" d="M3.55015 20.89V8.18552C3.55015 7.54387 3.89503 6.9389 4.45771 6.60891L15.3485 0.24749C15.9112 -0.0824968 16.6009 -0.0824968 17.1636 0.24749L28.0544 6.59058C28.617 6.92057 28.9619 7.52554 28.9619 8.18552V20.89C28.9619 21.55 28.617 22.155 28.0544 22.485L21.6916 26.1908L21.7004 26.1885L21.5324 26.2835L21.1844 26.4862C20.947 26.6563 20.7928 26.9293 20.7928 27.2335V27.7468L20.7873 27.723L20.7763 29.2501L20.7945 32L15.4317 28.874C15.4037 28.8595 15.3759 28.8442 15.3485 28.8281L4.45771 22.485C3.89503 22.155 3.55015 21.55 3.55015 20.89ZM14.4754 8.7535C13.7494 8.03853 12.5877 8.03853 11.8617 8.7535C11.0811 9.50514 11.0811 10.7518 11.8617 11.5034C12.5877 12.2184 13.7494 12.2184 14.4754 11.5034C14.5006 11.4792 14.5249 11.4545 14.5484 11.4292L19.5228 14.3265L19.5413 14.316C19.3199 14.9891 19.4832 15.7607 20.0311 16.2883C20.7572 17.0033 21.9189 17.0033 22.6449 16.2883C23.4254 15.5367 23.4254 14.2901 22.6449 13.5384C21.9189 12.8235 20.7572 12.8235 20.0311 13.5384C20.0224 13.5469 20.0137 13.5554 20.0051 13.564L14.9943 10.6287C15.1702 9.97962 14.9972 9.25596 14.4754 8.7535ZM19.8868 16.6546L15.0036 19.5042C15.1654 20.1451 14.9897 20.8535 14.4764 21.3478C13.7504 22.0628 12.5887 22.0628 11.8626 21.3478C11.0821 20.5962 11.0821 19.3495 11.8626 18.5979C12.5887 17.8829 13.7504 17.8829 14.4764 18.5979C14.5097 18.63 14.5415 18.6629 14.572 18.6967L18.9792 16.1413L19.8868 16.6546Z" fill="#0F2B46"/>
</g>
<defs>
<clipPath id="clip0_10373_622">
<rect width="32" height="32" fill="white" transform="matrix(-1 0 0 1 32 0)"/>
</clipPath>
</defs>
</svg>
