<?xml version="1.0" encoding="utf-8"?>
<!-- Generator: Adobe Illustrator 26.1.0, SVG Export Plug-In . SVG Version: 6.00 Build 0)  -->
<svg version="1.1" id="Layer_1" xmlns="http://www.w3.org/2000/svg" xmlns:xlink="http://www.w3.org/1999/xlink" x="0px" y="0px"
	 viewBox="0 0 24.4 24.4" style="enable-background:new 0 0 24.4 24.4;" xml:space="preserve">
<style type="text/css">
	.st0{fill:#16AB03;}
	.st1{fill:#5E33BF;}
</style>
<g>
	<g>
		<path class="st0" d="M8.2,19.3c0.4,1,0.9,2.1,1.4,3.1c0.4,0.7,0.9,1.4,1.4,2c4.8-1.2,9.1-3.7,12.5-7.2c-0.8-1.8-1.8-3.5-3-5
			C17.4,15.9,13.1,18.4,8.2,19.3z"/>
		<path class="st1" d="M11,0C9.9,1.5,8.9,3.3,8.2,5.1c4.9,0.8,9.2,3.4,12.2,7.1c1.2-1.5,2.3-3.2,3-5C20.2,3.7,15.9,1.2,11,0z"/>
		<path d="M8.2,19.3c-1.5-3.9-1.7-8.2-0.6-12.3C7.8,6.3,8,5.7,8.2,5.1C7.1,4.9,6,4.8,4.9,4.8C4,4.8,3.2,4.9,2.4,5
			c-1.3,4.6-1.4,9.6,0,14.4c0.8,0.1,1.6,0.1,2.4,0.1C6,19.6,7.1,19.5,8.2,19.3z"/>
	</g>
	<!--g>
		<g>
			<path d="M40.1,18.7c2.6,0,4.6-1.4,5.3-3.7h4.3c-1.1,4.6-5.2,7.3-9.6,7.3c-5.7,0-10.2-4.2-10.2-10.1c0-5.9,4.4-10.1,10.2-10.1
				c4.4,0,8.4,2.7,9.6,7.3h-4.3c-0.7-2.3-2.7-3.7-5.3-3.7c-3.7,0-6.1,2.8-6.1,6.5C34,15.9,36.4,18.7,40.1,18.7z"/>
			<path d="M55.3,22h-3.6V2.4h3.6V22z"/>
			<path d="M65.3,13.4c0-0.9-0.7-1.5-2.1-1.5c-1.3,0-2.9,0.6-3.9,1.2l-1.4-2.7c0,0,2.4-1.6,5.5-1.6c2.9,0,5.6,1.3,5.6,4.7V22h-3.6
				v-1.2c-0.7,1-2.1,1.5-3.6,1.5c-2.7,0-4.5-1.9-4.5-4c0-2.4,1.8-3.9,4.6-3.9h2.5c0.6,0,0.9-0.3,0.9-0.8V13.4z M65.3,17.4v-0.9
				c-0.2,0.2-0.6,0.3-1.1,0.3h-1.4c-1.1,0-1.8,0.5-1.8,1.4c0,0.9,0.7,1.5,1.8,1.5C64.1,19.6,65.3,19,65.3,17.4z"/>
			<path d="M78.9,12.7h-1.5c-1.8,0-2.7,0.9-2.7,3.1V22H71V9.2h3.5v2C75.1,9.8,76.3,9,77.9,9c0.3,0,0.7,0,1,0.1V12.7z"/>
			<path d="M86,22h-3.6v-9.7h-1.8V9.2H86V22z M84,2.4c1.3,0,2.3,1.1,2.3,2.3c0,1.3-1,2.3-2.3,2.3c-1.3,0-2.3-1-2.3-2.3
				C81.7,3.5,82.7,2.4,84,2.4z"/>
			<path d="M94.1,18.1L97,9.2h3.8L96.3,22h-4.5L87.5,9.2h3.9L94.1,18.1z"/>
			<path d="M109.1,13.4c0-0.9-0.7-1.5-2.1-1.5c-1.3,0-2.9,0.6-3.9,1.2l-1.4-2.7c0,0,2.4-1.6,5.5-1.6c2.9,0,5.6,1.3,5.6,4.7V22h-3.6
				v-1.2c-0.7,1-2.1,1.5-3.6,1.5c-2.7,0-4.5-1.9-4.5-4c0-2.4,1.8-3.9,4.6-3.9h2.5c0.6,0,0.9-0.3,0.9-0.8V13.4z M109.1,17.4v-0.9
				c-0.2,0.2-0.6,0.3-1.1,0.3h-1.4c-1.1,0-1.8,0.5-1.8,1.4c0,0.9,0.7,1.5,1.8,1.5C107.9,19.6,109.1,19,109.1,17.4z"/>
			<path d="M119.7,4.3v4.9h2.8v3.1h-2.8V18c0,0.8,0.6,0.9,1.2,0.9c0.9,0,1.7-0.1,1.7-0.1V22c0,0-1.8,0.2-2.8,0.2
				c-1.8,0-3.7-0.3-3.7-2.9v-7h-2V9.2h2V4.3H119.7z"/>
			<path d="M136.9,16.6h-9.5c0.2,1.4,1.3,2.6,2.9,2.6c1.1,0,2.1-0.4,2.6-1.3l3.8,0.4c-1.1,2.7-3.5,4-6.4,4c-3.8,0-6.7-2.8-6.7-6.7
				s2.8-6.7,6.6-6.7c3.5,0,6.7,2.3,6.7,7.6V16.6z M127.3,14.2h5.7c-0.2-1.3-1.3-2.3-2.8-2.3C128.7,11.9,127.6,12.8,127.3,14.2z"/>
		</g>
		<g>
			<path d="M138.9,3.3h-1v2.6h-1V3.3h-1V2.4h3V3.3z"/>
			<path d="M140.9,5.2l-0.4-1.2v2h-1V2.4h1.3l0.5,1.4l0.5-1.4h1.3v3.5h-1v-2l-0.4,1.2H140.9z"/>
		</g>
	</g-->
</g>
</svg>
